# AST/ASF file generated using VICON BodyLanguage
# -----------------------------------------------
:version 1.10
:name VICON
:units
  mass 1.0
  length 0.45
  angle deg
:documentation
   .ast/.asf automatically generated from VICON data using
   VICON BodyBuilder and BodyLanguage model FoxedUp or BRILLIANT.MOD
:root
   order TX TY TZ RX RY RZ
   axis XYZ
   position 0 0 0  
   orientation 0 0 0 
:bonedata
  begin
     id 1 
     name lhipjoint
     direction 0.621036 -0.695554 0.361275 
     length 2.46325 
     axis 0 0 0  XYZ
  end
  begin
     id 2 
     name lfemur
     direction 0.34202 -0.939693 0  
     length 6.54784  
     axis 0 0 20  XYZ
    dof rx ry rz
    limits (-160.0 20.0)
           (-70.0 70.0)
           (-60.0 70.0)
  end
  begin
     id 3 
     name ltibia
     direction 0.34202 -0.939693 0   
     length 7.84737   
     axis 0 0 20   XYZ
    dof rx
    limits (-10.0 170.0)
  end
  begin
     id 4 
     name lfoot
     direction 0.0790693 -0.217241 0.97291   
     length 2.59747   
     axis -90 7.62852e-016 20   XYZ
    dof rx rz
    limits (-45.0 90.0)
           (-70.0 20.0)
  end
  begin
     id 5 
     name ltoes
     direction 1.53572e-011 -4.21898e-011 1   
     length 1.29919   
     axis -90 7.62852e-016 20   XYZ
    dof rx
    limits (-90.0 20.0)
  end
  begin
     id 6 
     name rhipjoint
     direction -0.602353 -0.708375 0.367935   
     length 2.41867  
     axis 0 0 0  XYZ 
  end
  begin
     id 7 
     name rfemur
     direction -0.34202 -0.939693 0   
     length 6.92065   
     axis 0 0 -20   XYZ
    dof rx ry rz
    limits (-160.0 20.0)
           (-70.0 70.0)
           (-70.0 60.0)
  end
  begin
     id 8 
     name rtibia
     direction -0.34202 -0.939693 0   
     length 7.88883   
     axis 0 0 -20   XYZ
    dof rx
    limits (-10.0 170.0)
 end
 begin
     id 9 
     name rfoot
     direction -0.0768692 -0.211196 0.974416   
     length 2.43714  
     axis -90 -7.62852e-016 -20   XYZ
    dof rx rz
    limits (-45.0 90.0)
           (-20.0 70.0)
  end
  begin
     id 10 
     name rtoes
     direction -1.53575e-011 -4.21933e-011 1   
     length 1.22113   
     axis -90 -7.62852e-016 -20   XYZ
    dof rx
    limits (-90.0 20.0)
  end
  begin
     id 11 
     name lowerback
     direction 0.0197937 0.98943 -0.143655   
     length 2.16931   
     axis 0 0 0   XYZ
    dof rx ry rz
    limits (-20.0 45.0)
           (-30.0 30.0)
           (-30.0 30.0)
  end
  begin
     id 12 
     name upperback
     direction -0.00183968 0.999975 0.00684288   
     length 2.17221   
     axis 0 0 0   XYZ
    dof rx ry rz
    limits (-20.0 45.0)
           (-30.0 30.0)
           (-30.0 30.0)
  end
  begin
     id 13 
     name thorax
     direction -0.00950244 0.997208 0.0740685   
     length 2.22549   
     axis 0 0 0   XYZ
    dof rx ry rz
    limits (-20.0 45.0)
           (-30.0 30.0)
           (-30.0 30.0)
  end
  begin
     id 14 
     name lowerneck
     direction 0.0218238 0.996215 0.0841425   
     length 1.77269   
     axis 0 0 0   XYZ
    dof rx ry rz
    limits (-20.0 45.0)
           (-30.0 30.0)
           (-30.0 30.0)
  end
  begin
     id 15 
     name upperneck
     direction -0.00430652 0.994214 -0.107332   
     length 1.76534   
     axis 0 0 0   XYZ
    dof rx ry rz
    limits (-20.0 45.0)
           (-30.0 30.0)
           (-30.0 30.0)
  end
  begin
     id 16
     name head
     direction -0.00328946 0.998959 -0.0454998  
     length 1.82634  
     axis 0 0 0   XYZ
    dof rx ry rz
    limits (-20.0 45.0)
           (-30.0 30.0)
           (-30.0 30.0)
  end
  begin
     id 17 
     name lclavicle
     direction 0.970962 0.239191 0.00450212  
     length 3.84872  
     axis 0 0 0   XYZ
    dof ry rz
    limits (-20.0 10.0)
           (0.0 20.0)
  end
  begin
     id 18 
     name lhumerus
     direction 1 -4.48966e-011 5.74696e-028   
     length 5.22771   
     axis 180 -30 -90   XYZ
    dof rx ry rz
    limits (-60.0 90.0)
           (-90.0 90.0)
           (-90.0 90.0)
  end
  begin
     id 19
     name lradius
     direction 1 -4.4896e-011 4.25109e-027   
     length 3.45251   
     axis 180 -30 -90   XYZ
    dof rx
    limits (-10.0 170.0)
  end
  begin
     id 20
     name lwrist
     direction 1 -4.48971e-011 1.15382e-027   
     length 1.72626   
     axis -5.52449e-016 90 90   XYZ
    dof ry
    limits (-180.0 0.0)
 end
  begin
     id 21 
     name lhand
     direction 1 -4.49034e-011 2.30765e-027   
     length 0.552119   
     axis -1.47248e-015 90 90   XYZ
    dof rx rz
    limits (-90.0 90.0)
           (-45.0 45.0)
  end
  begin
     id 22 
     name lfingers
     direction 1 -4.48951e-011 4.61529e-027   
     length 0.445133   
     axis -2.94495e-015 90 90   XYZ
    dof rx
    limits (0.0 90.0)
  end
  begin
     id 23
     name lthumb
     direction 0.707107 -6.34991e-011 0.707107   
     length 0.639124   
     axis -90 45 2.85299e-015   XYZ
    dof rx rz
    limits (-45.0 45.0)
           (-45.0 45.0)
  end
  begin
     id 24 
     name rclavicle
     direction -0.97424 0.222511 -0.0366699   
     length 3.73439  
     axis 0 0 0   XYZ 
    dof ry rz
    limits (-10.0 20.0)
           (-20.0 0.0)
  end
  begin
     id 25 
     name rhumerus
     direction -1 -4.48956e-011 -4.97258e-028  
     length 5.2398   
     axis 180 30 90   XYZ
    dof rx ry rz
    limits (-90.0 60.0)
           (-90.0 90.0)
           (-90.0 90.0)
  end
  begin
     id 26 
     name rradius
     direction -1 -4.4897e-011 -1.72611e-027   
     length 3.48042   
     axis 180 30 90   XYZ
    dof rx
    limits (-10.0 170.0)
  end
  begin
     id 27 
     name rwrist
     direction -1 -4.48976e-011 1.15382e-027   
     length 1.74021   
     axis -5.52449e-016 -90 -90   XYZ
    dof ry
    limits (-180.0 0.0)
  end
  begin
     id 28
     name rhand
     direction -1 -4.48963e-011 2.30765e-027   
     length 0.618713   
     axis -1.47248e-015 -90 -90   XYZ
    dof rx rz
    limits (-90.0 90.0)
           (-45.0 45.0)
  end
  begin
     id 29
     name rfingers
     direction -1 -4.4888e-011 4.61529e-027   
     length 0.498823   
     axis -2.94495e-015 -90 -90   XYZ
    dof rx
    limits (0.0 90.0)
  end
  begin
     id 30
     name rthumb
     direction -0.707107 -6.34968e-011 0.707107   
     length 0.716213   
     axis -90 -45 -2.85299e-015   XYZ
    dof rx rz
    limits (-45.0 45.0)
           (-45.0 45.0)
  end
:hierarchy
  begin
    root lhipjoint rhipjoint lowerback
    lhipjoint lfemur
    lfemur ltibia
    ltibia lfoot
    lfoot ltoes
    rhipjoint rfemur
    rfemur rtibia
    rtibia rfoot
    rfoot rtoes
    lowerback upperback
    upperback thorax
    thorax lowerneck lclavicle rclavicle
    lowerneck upperneck
    upperneck head
    lclavicle lhumerus
    lhumerus lradius
    lradius lwrist
    lwrist lhand lthumb
    lhand lfingers
    rclavicle rhumerus
    rhumerus rradius
    rradius rwrist
    rwrist rhand rthumb
    rhand rfingers
  end

#!OML:ASF G:\JayActor3\Patient Classification 1\Patient 1\Session 5\male.ASF
:FULLY-SPECIFIED
:DEGREES
312
root 36.5237 17.1268 -3.87774 110.423 88.8106 92.8173
lowerback 19.3337 -2.74571 1.70167
upperback 7.15482 -2.86001 -1.16768
thorax -3.24412 -1.18537 -1.59402
lowerneck 4.77568 0.595036 3.07164
upperneck -20.7806 1.73587 0.463388
head -7.11759 0.762069 -0.521558
rclavicle -1.37161e-014 1.07344e-014
rhumerus -30.6667 -2.04068 -89.6147
rradius 29.4813
rwrist 2.199
rhand -22.7833 -8.49179
rfingers 7.12502
rthumb 3.6524 -38.4402
lclavicle -1.37161e-014 1.07344e-014
lhumerus -32.2313 6.74721 83.7892
lradius 30.3049
lwrist 23.036
lhand -20.3902 11.6876
lfingers 7.12502
lthumb 5.96313 41.5837
rfemur -47.5967 2.37389 17.9816
rtibia 33.6204
rfoot 8.24644 -14.0812
rtoes 10.3174
lfemur -3.71588 3.40968 -20.5227
ltibia 17.7973
lfoot -0.0332137 -5.34786
ltoes -23.4257
313
root 36.3928 17.1066 -3.90205 117.632 88.6706 100.221
lowerback 19.417 -2.79614 1.5538
upperback 7.20523 -2.94502 -1.20488
thorax -3.2314 -1.22472 -1.52956
lowerneck 4.83255 0.587061 3.0662
upperneck -20.7959 1.7377 0.521523
head -7.13343 0.757681 -0.502443
rclavicle 3.77691e-015 1.03368e-014
rhumerus -30.715 -2.03477 -89.6541
rradius 29.5467
rwrist 2.12154
rhand -22.795 -8.51313
rfingers 7.12502
rthumb 3.64111 -38.4618
lclavicle 3.77691e-015 1.03368e-014
lhumerus -32.1249 6.79308 83.7761
lradius 30.2614
lwrist 23.0068
lhand -20.4773 11.7111
lfingers 7.12502
lthumb 5.87899 41.6096
rfemur -47.8128 2.38558 17.6321
rtibia 33.4962
rfoot 8.53673 -14.5772
rtoes 10.8086
lfemur -3.7478 3.49988 -20.6954
ltibia 17.5826
lfoot -0.618889 -5.61621
ltoes -24.3376
314
root 36.258 17.0899 -3.927 122.213 88.5294 104.978
lowerback 19.5227 -2.83378 1.38645
upperback 7.24712 -3.01702 -1.23791
thorax -3.23716 -1.25826 -1.45155
lowerneck 4.91263 0.580942 3.06372
upperneck -20.8263 1.74161 0.569231
head -7.1582 0.754593 -0.487612
rclavicle 2.38542e-015 0
rhumerus -30.7593 -1.99839 -89.6945
rradius 29.5975
rwrist 2.06592
rhand -22.8053 -8.52864
rfingers 7.12502
rthumb 3.63115 -38.4775
lclavicle 2.38542e-015 0
lhumerus -32.0218 6.83722 83.7779
lradius 30.2275
lwrist 23.0015
lhand -20.5694 11.7162
lfingers 7.12502
lthumb 5.79007 41.6171
rfemur -48.0224 2.3872 17.2933
rtibia 33.2786
rfoot 8.9305 -15.1225
rtoes 11.3907
lfemur -3.82832 3.61936 -20.8882
ltibia 17.3808
lfoot -1.16264 -5.84405
ltoes -25.0786
315
root 36.1197 17.0776 -3.95286 124.523 88.3973 107.443
lowerback 19.6472 -2.85609 1.19574
upperback 7.28504 -3.07352 -1.26973
thorax -3.25457 -1.28458 -1.36164
lowerneck 4.99539 0.575827 3.06314
upperneck -20.8768 1.74693 0.609131
head -7.18992 0.752725 -0.475915
rclavicle -3.97569e-016 9.93923e-015
rhumerus -30.7844 -1.94059 -89.7345
rradius 29.6343
rwrist 2.03493
rhand -22.8116 -8.54069
rfingers 7.12502
rthumb 3.62508 -38.4896
lclavicle -3.97569e-016 9.93923e-015
lhumerus -31.9119 6.87039 83.7975
lradius 30.2081
lwrist 23.022
lhand -20.6621 11.7132
lfingers 7.12502
lthumb 5.70062 41.6165
rfemur -48.2298 2.37673 16.96
rtibia 32.9602
rfoot 9.42493 -15.7246
rtoes 12.073
lfemur -3.96434 3.77824 -21.1107
ltibia 17.2074
lfoot -1.66519 -6.00016
ltoes -25.6246
316
root 35.9786 17.0702 -3.98009 125.038 88.2805 108.086
lowerback 19.7881 -2.86397 0.988355
upperback 7.32059 -3.11466 -1.30115
thorax -3.28107 -1.30358 -1.26461
lowerneck 5.07686 0.571889 3.06757
upperneck -20.9505 1.75236 0.631157
head -7.22875 0.752138 -0.471047
rclavicle -3.65764e-014 -6.36111e-015
rhumerus -30.7868 -1.87521 -89.7683
rradius 29.6557
rwrist 2.03508
rhand -22.8084 -8.5493
rfingers 7.12502
rthumb 3.62814 -38.4982
lclavicle -3.65764e-014 -6.36111e-015
lhumerus -31.7929 6.88904 83.8382
lradius 30.1994
lwrist 23.0555
lhand -20.75 11.6999
lfingers 7.12502
lthumb 5.61572 41.6055
rfemur -48.4325 2.34576 16.6326
rtibia 32.5376
rfoot 10.0182 -16.4021
rtoes 12.9207
lfemur -4.15465 3.98789 -21.3662
ltibia 17.0645
lfoot -2.11904 -6.08664
ltoes -26.0621
317
root 35.8354 17.0676 -4.00887 124.041 88.1806 107.193
lowerback 19.9411 -2.85863 0.766452
upperback 7.3549 -3.142 -1.33538
thorax -3.31365 -1.31593 -1.16493
lowerneck 5.14897 0.570243 3.07109
upperneck -21.0461 1.76149 0.649488
head -7.27305 0.753981 -0.467643
rclavicle -3.1408e-014 -1.98785e-014
rhumerus -30.7631 -1.80497 -89.7987
rradius 29.6626
rwrist 2.0551
rhand -22.8009 -8.56011
rfingers 7.12502
rthumb 3.63541 -38.5088
lclavicle -3.1408e-014 -1.98785e-014
lhumerus -31.6645 6.88549 83.8977
lradius 30.2035
lwrist 23.0954
lhand -20.8333 11.6874
lfingers 7.12502
lthumb 5.53533 41.5951
rfemur -48.6307 2.30404 16.3006
rtibia 32.0116
rfoot 10.684 -17.1927
rtoes 14.0185
lfemur -4.39579 4.26408 -21.6576
ltibia 16.935
lfoot -2.5074 -6.11951
ltoes -26.3976
318
root 35.6912 17.0696 -4.03948 121.896 88.0923 105.121
lowerback 20.0946 -2.84299 0.535927
upperback 7.38735 -3.15871 -1.37221
thorax -3.34751 -1.32322 -1.06541
lowerneck 5.21688 0.572515 3.07276
upperneck -21.1621 1.7766 0.664745
head -7.32325 0.759285 -0.465546
rclavicle -4.33351e-014 -1.94809e-014
rhumerus -30.7208 -1.74001 -89.8203
rradius 29.6606
rwrist 2.09218
rhand -22.7999 -8.56066
rfingers 7.12502
rthumb 3.63631 -38.5094
lclavicle -4.33351e-014 -1.94809e-014
lhumerus -31.5333 6.86162 83.9769
lradius 30.2221
lwrist 23.1284
lhand -20.9089 11.6944
lfingers 7.12502
lthumb 5.46231 41.604
rfemur -48.8226 2.25335 15.9527
rtibia 31.3879
rfoot 11.3852 -18.1204
rtoes 15.3854
lfemur -4.68062 4.61342 -21.9856
ltibia 16.7959
lfoot -2.81857 -6.12305
ltoes -26.5716
319
root 35.5467 17.0757 -4.07156 118.773 88.0053 102.031
lowerback 20.2319 -2.81656 0.292507
upperback 7.41846 -3.16534 -1.41258
thorax -3.37342 -1.32586 -0.965189
lowerneck 5.27382 0.579018 3.06829
upperneck -21.296 1.79813 0.680688
head -7.37744 0.7684 -0.462805
rclavicle -1.27222e-014 -6.75868e-015
rhumerus -30.6569 -1.68963 -89.8324
rradius 29.6553
rwrist 2.13638
rhand -22.7921 -8.56466
rfingers 7.12502
rthumb 3.64389 -38.5133
lclavicle -1.27222e-014 -6.75868e-015
lhumerus -31.3942 6.80916 84.077
lradius 30.2531
lwrist 23.1495
lhand -20.9755 11.7138
lfingers 7.12502
lthumb 5.39805 41.6251
rfemur -49.0207 2.2181 15.5614
rtibia 30.6791
rfoot 12.0627 -19.2413
rtoes 17.0771
lfemur -5.0098 5.04074 -22.3527
ltibia 16.627
lfoot -3.04075 -6.12621
ltoes -26.5738
320
root 35.4028 17.0848 -4.10478 114.911 87.9074 98.1558
lowerback 20.3407 -2.77993 0.0316142
upperback 7.44169 -3.16433 -1.45818
thorax -3.39219 -1.32546 -0.86321
lowerneck 5.33046 0.589844 3.06761
upperneck -21.4358 1.82633 0.694782
head -7.43347 0.780635 -0.461899
rclavicle 2.70347e-014 -7.15625e-015
rhumerus -30.5899 -1.6528 -89.8395
rradius 29.6538
rwrist 2.17209
rhand -22.7885 -8.57569
rfingers 7.12502
rthumb 3.64733 -38.5242
lclavicle 2.70347e-014 -7.15625e-015
lhumerus -31.2628 6.72616 84.1907
lradius 30.297
lwrist 23.1623
lhand -21.0224 11.7508
lfingers 7.12502
lthumb 5.35276 41.6632
rfemur -49.2311 2.21673 15.1025
rtibia 29.906
rfoot 12.6636 -20.5427
rtoes 18.9667
lfemur -5.37952 5.53866 -22.7599
ltibia 16.4191
lfoot -3.18217 -6.15004
ltoes -26.4672
